<svg xmlns="http://www.w3.org/2000/svg" fill="#ef4900" enable-background="new 0 0 512 512" viewBox="0 0 512 512">
    <path d="M256 0C114.833 0 0 114.844 0 256s114.833 256 256 256 256-114.844 256-256S397.167 0 256 0zm0 426.667c-11.771 0-21.333-9.573-21.333-21.333 0-11.76 9.563-21.333 21.333-21.333s21.333 9.573 21.333 21.333c0 11.76-9.562 21.333-21.333 21.333zM277.333 352c0 5.896-4.771 10.667-10.667 10.667h-21.333c-5.896 0-10.667-4.771-10.667-10.667V96c0-5.896 4.771-10.667 10.667-10.667h21.333c5.896 0 10.667 4.771 10.667 10.667v256z"/>
</svg>
