<svg xmlns="http://www.w3.org/2000/svg" fill="#ef4900" width="427pt" height="427pt" viewBox="-40 0 427 427.001">
    <path d="M232.398 154.703c-5.523 0-10 4.477-10 10v189c0 5.52 4.477 10 10 10 5.524 0 10-4.48 10-10v-189c0-5.523-4.476-10-10-10zm0 0M114.398 154.703c-5.523 0-10 4.477-10 10v189c0 5.52 4.477 10 10 10 5.524 0 10-4.48 10-10v-189c0-5.523-4.476-10-10-10zm0 0"/>
    <path d="M28.398 127.121V373.5c0 14.563 5.34 28.238 14.668 38.05 9.286 9.84 22.207 15.427 35.73 15.45H268c13.527-.023 26.45-5.61 35.73-15.45 9.329-9.812 14.668-23.487 14.668-38.05V127.121c18.543-4.922 30.559-22.836 28.079-41.863-2.485-19.024-18.692-33.254-37.88-33.258h-51.199V39.5c.059-10.512-4.097-20.605-11.539-28.031C238.418 4.047 228.31-.086 217.797 0H129c-10.512-.086-20.621 4.047-28.063 11.469-7.44 7.426-11.597 17.52-11.539 28.031V52H38.2C19.012 52.004 2.805 66.234.32 85.258c-2.48 19.027 9.535 36.941 28.078 41.863zM268 407H78.797c-17.098 0-30.399-14.688-30.399-33.5V128h250v245.5c0 18.813-13.3 33.5-30.398 33.5zM109.398 39.5c-.066-5.207 1.98-10.219 5.676-13.895C118.766 21.93 123.79 19.91 129 20h88.797c5.21-.09 10.234 1.93 13.926 5.605 3.695 3.672 5.742 8.688 5.675 13.895V52h-128zM38.2 72h270.399c9.941 0 18 8.059 18 18s-8.059 18-18 18H38.199c-9.941 0-18-8.059-18-18s8.059-18 18-18zm0 0"/>
    <path d="M173.398 154.703c-5.523 0-10 4.477-10 10v189c0 5.52 4.477 10 10 10 5.524 0 10-4.48 10-10v-189c0-5.523-4.476-10-10-10zm0 0"/>
</svg>
